<svg xmlns="http://www.w3.org/2000/svg" width="48" height="48" viewBox="0 0 48 48"><path d="M0,0H48V48H0Z" fill="none"/><path d="M16,21.5A2.5,2.5,0,1,0,18.5,24,2.5,2.5,0,0,0,16,21.5Zm12,0A2.5,2.5,0,1,0,30.5,24,2.5,2.5,0,0,0,28,21.5ZM22,2A20,20,0,1,0,42,22,20.007,20.007,0,0,0,22,2Zm0,36A16.021,16.021,0,0,1,6,22a16.215,16.215,0,0,1,.1-1.72A20.123,20.123,0,0,0,16.52,9.54,19.948,19.948,0,0,0,32.84,18a19.521,19.521,0,0,0,4.5-.52A15.976,15.976,0,0,1,22,38Z" transform="translate(2 2)" fill="#eb414f"/></svg>