<svg xmlns="http://www.w3.org/2000/svg" width="764.327" height="607.942" viewBox="0 0 764.327 607.942"><g transform="translate(-50.568 -104.58)"><g transform="translate(50.568 245.964)"><rect width="744.508" height="30.544" transform="translate(19.819 436.014)" fill="#eb414f"/><rect width="744.508" height="30.544" transform="translate(19.819 436.014)" fill="#fff" opacity="0.5"/><path d="M255.789,287.292a104.984,104.984,0,0,0-10.709,4.142c1.909-1.413,3.818-2.844,5.727-4.314a272.492,272.492,0,0,0,24.244-21.953,260.1,260.1,0,0,1-28.635,24.111,65.572,65.572,0,0,0,3.665-7.521c1.814-4.753,2.253-9.545-2.291-12.084-5.574-3.131-12.351,1.546-10.557,9.545a29.494,29.494,0,0,0,6.147,12.122,184.3,184.3,0,0,1-20.6,12.351l-.687.344a65.533,65.533,0,0,0,3.99-8.113c1.814-4.734,2.253-9.545-2.291-12.065-5.574-3.15-12.351,1.546-10.557,9.545a29.437,29.437,0,0,0,6.052,11.988c-8.571,4.219-17.448,7.808-26.249,11.7l-1.279.573a55.1,55.1,0,0,0,4.773-5.88c2.883-4.181,4.41-8.724.592-12.275-4.7-4.353-12.37-1.355-12.5,6.891a29.246,29.246,0,0,0,3.112,13.115,134.988,134.988,0,0,0-23.366,13.859l-.229.191a49.846,49.846,0,0,0,2.692-4.849c2.157-4.6,2.959-9.335-1.374-12.218a7.082,7.082,0,0,0-10.652,3.3,6.624,6.624,0,0,0-2.291-2.176c-4.372-2.52-8.667.21-12.332,4.066a38.638,38.638,0,0,0-2.73,3.169,134.069,134.069,0,0,1,10.671-22.736,32.3,32.3,0,0,0,12.828,2.749c8.705,0,12.389-7.254,8.113-11.759-3.474-3.646-8.361-2.253-12.981.42a49.073,49.073,0,0,0-4.429,2.9,131.852,131.852,0,0,1,15.024-18.67,32.681,32.681,0,0,0,12.237,6.338c8.457,2.081,13.783-4.047,10.709-9.45-2.482-4.391-7.636-4.219-12.695-2.749a65.66,65.66,0,0,0-7.082,2.615c2.31-2.234,4.7-4.391,7.1-6.529,3.188-2.711,6.471-5.326,9.793-7.884a32.7,32.7,0,0,0,12.2,6.09c8.457,2.081,13.764-4.047,10.709-9.45-2.482-4.391-7.636-4.219-12.695-2.749-1.2.344-2.386.764-3.57,1.2,4.41-3.15,8.9-6.223,13.363-9.278l4.162-2.844a32.682,32.682,0,0,0,12.828,6.605c8.457,2.081,13.764-4.047,10.71-9.45-2.482-4.391-7.636-4.219-12.695-2.749a58.293,58.293,0,0,0-5.9,2.119h0c.859-.611,1.718-1.222,2.558-1.909,1.584-1.126,3.131-2.291,4.677-3.474,1.909-1.432,3.7-3.035,5.574-4.543,1.05-.84,2.081-1.737,3.093-2.654a32.7,32.7,0,0,0,12.9,6.662c8.457,2.081,13.764-4.047,10.709-9.45-2.482-4.391-7.636-4.219-12.695-2.749a71.444,71.444,0,0,0-8.323,3.15h0c3.455-3.207,6.8-6.548,9.946-10.022l.63-.725c1.355-1.508,2.711-3.054,4.009-4.62s2.959-3.684,4.372-5.574a107.422,107.422,0,0,0,14.2-24.817,107.994,107.994,0,0,1-14.661,24.435,154.82,154.82,0,0,1-19.605,20.713l-.783.668a72.071,72.071,0,0,0,4.352-8.762c1.909-4.734,2.253-9.545-2.291-12.065-5.574-3.15-12.351,1.546-10.557,9.545a29.513,29.513,0,0,0,6.7,12.752l-1.68,1.451-1.909,1.642c-1.126.9-2.253,1.756-3.4,2.615l-1.909,1.394c-1.623,1.2-3.283,2.367-4.944,3.513l-2.367,1.623-2.711,1.909a70.641,70.641,0,0,0,4.162-8.419c1.813-4.753,2.253-9.545-2.291-12.084-5.574-3.131-12.351,1.565-10.557,9.545a29.685,29.685,0,0,0,6.4,12.428l-2,1.3-7.445,4.868-1.451.954-4.143,2.768-1.794,1.2c-1.909,1.317-3.818,2.654-5.727,4.028a70.006,70.006,0,0,0,4.238-8.552c1.814-4.734,2.253-9.545-2.291-12.065-5.574-3.15-12.351,1.546-10.557,9.545a29.723,29.723,0,0,0,6.529,12.561c-3.245,2.386-6.433,4.83-9.545,7.388-2.272,1.909-4.524,3.818-6.7,5.88a49.023,49.023,0,0,0,2.539-5.46c1.909-4.753,2.253-9.545-2.291-12.065-5.574-3.15-12.351,1.546-10.557,9.545a29.685,29.685,0,0,0,6.052,11.989,135.538,135.538,0,0,0-16.646,20.1,51.71,51.71,0,0,0,1.279-6.338c.611-5.04-.115-9.774-5.135-11.149-6.185-1.7-11.626,4.486-7.941,11.855a29.742,29.742,0,0,0,8.858,10.251A142.374,142.374,0,0,0,132.735,325.2a43.2,43.2,0,0,0-.534-5.383c-.84-5.021-2.883-9.354-8.094-9.259-6.4.134-9.85,7.636-4.238,13.63a29.3,29.3,0,0,0,10.748,7.082,179.437,179.437,0,0,0-5.307,20.369c-.21,1.088-.382,2.176-.592,3.264-.229.21-.458.42-.668.649-.229-.935-.5-1.909-.8-2.806-1.6-4.811-4.3-8.8-9.411-7.884-6.319,1.088-8.59,9.01-2.1,14.107a29.171,29.171,0,0,0,11.168,5.212l.229.554c-.687,5.173-1.222,10.385-1.546,15.616-.248,3.818-.382,7.808-.458,11.721-5.46,0-9.316,5.994-5.555,12.485a27.758,27.758,0,0,0,6.013,7.1c.458,7.35,1.184,14.7,2.157,21.992A6.071,6.071,0,0,0,117.9,432.3c-3.436.935-4.982,3.7-5.555,7.1a7.006,7.006,0,0,0-1.909,4.715c-2.558-3.818-4.963-7.636-7.311-11.683a32.338,32.338,0,0,0,8.705-10.156c4.123-7.636-.515-14.337-6.51-12.714-4.868,1.317-5.956,6.3-5.727,11.626a52.066,52.066,0,0,0,.573,6.033c-.859-1.47-1.7-2.959-2.52-4.429-2.1-3.818-3.818-7.636-5.88-11.454-.5-.935-.935-1.909-1.355-2.863a32.071,32.071,0,0,0,10.442-8.342c5.479-6.758,2.176-14.184-4.009-13.707-5.021.4-7.025,5.078-7.865,10.347a54.257,54.257,0,0,0-.611,6.93l-1.794-4.142a214.648,214.648,0,0,1-9.411-28.9,32.7,32.7,0,0,0,12.1-7.636c6.128-6.2,3.589-13.9-2.615-14.05-5.04-.115-7.5,4.333-8.877,9.545a71.894,71.894,0,0,0-1.527,8.4c-1.317-5.727-2.463-11.359-3.417-17.086-.649-3.551-1.069-7.159-1.527-10.748a33.005,33.005,0,0,0,13.5-6.052c6.872-5.345,5.345-13.363-.783-14.26-4.982-.783-8,3.322-10.022,8.266a82.082,82.082,0,0,0-3,9.545c-.382-4.162-.821-8.342-1.012-12.523a192.6,192.6,0,0,1,.115-25.924,193.174,193.174,0,0,0-.9,25.962c0,3.99.344,7.961.592,11.95a65.4,65.4,0,0,0-3.818-7.884c-2.615-4.372-6.071-7.636-10.9-5.727-5.918,2.444-6.433,10.652.993,14.241a29.7,29.7,0,0,0,13.974,2.654c.344,3.551.63,7.121,1.184,10.652.744,5.632,1.7,11.225,2.806,16.78a53.837,53.837,0,0,0-4.047-6.128c-3.15-3.99-7.025-6.815-11.454-4.238-5.555,3.188-5,11.454,2.825,13.993a29.532,29.532,0,0,0,13.726.916,218.924,218.924,0,0,0,8.571,29.3l1.145,2.863a41.73,41.73,0,0,0-3.264-3.818C78,395.99,73.9,393.565,69.624,396.6c-5.212,3.723-3.818,11.836,4.219,13.63a29.646,29.646,0,0,0,13.458-.382c.382.974.8,1.909,1.279,2.9,1.909,3.933,3.608,7.961,5.612,11.817l1.737,3.3a37.792,37.792,0,0,0-3.093-2.443c-4.162-2.921-8.667-4.524-12.275-.764-4.41,4.639-1.546,12.351,6.7,12.6a29.323,29.323,0,0,0,12.294-2.348c2.348,4.276,4.792,8.5,7.426,12.638.974,1.584,1.909,3.15,3.016,4.715a47.532,47.532,0,0,0-4.753-3.913c-4.143-2.921-8.667-4.524-12.256-.764-4.429,4.639-1.546,12.351,6.7,12.6a29.742,29.742,0,0,0,13.592-3.112q2.024,2.864,4.238,5.727c-3.073,3.57-2.081,9.545,4.162,12.275a28.12,28.12,0,0,0,9.545,2.119l1.184.9.21.153a457.32,457.32,0,0,0,14.012,43.563q3.455,9.144,7.292,18.116H131.017v90.353H201V539.909H163.6c-3.188-6.968-6.242-14.012-9.106-21.133-4.677-11.7-8.915-23.557-12.618-35.6h0a14.864,14.864,0,0,0,1.909.439,8.592,8.592,0,0,0,2.577.114l-.993-6.281H144.7a10.95,10.95,0,0,1-1.2-.229,16.843,16.843,0,0,1-2.558-.954l-.993-.458a32.168,32.168,0,0,0,10.079-5.727c6.643-5.727,4.753-13.554-1.413-14.222-5.021-.554-7.846,3.684-9.545,8.705-.515,1.432-.935,2.921-1.317,4.372-.344-1.336-.725-2.673-1.05-4.009-1.012-3.952-1.909-7.941-2.825-11.931a32.167,32.167,0,0,0,10.9-5.994c6.643-5.727,4.753-13.535-1.413-14.2-5.021-.554-7.846,3.684-9.545,8.705a45.82,45.82,0,0,0-1.336,4.448c-.573-2.921-1.145-5.822-1.642-8.743-.382-2.176-.706-4.333-1.031-6.51-.134-3.093-.172-6.185-.134-9.3,0-1.7,0-3.4.153-5.116a32.223,32.223,0,0,0,11.588,1.489c8.686-.573,11.912-8.018,7.369-12.237-3.7-3.455-8.5-1.737-12.943,1.2a58.643,58.643,0,0,0-5.727,4.41,139.162,139.162,0,0,1,3.283-21.572,114.389,114.389,0,0,1,3.665-12.332,32.451,32.451,0,0,0,12.428,1.737c8.686-.554,11.912-8,7.369-12.237-3.7-3.436-8.5-1.737-12.943,1.222a54.8,54.8,0,0,0-4.562,3.436,89.539,89.539,0,0,1,5.842-11.454,84.11,84.11,0,0,1,16.456-19.739,32.454,32.454,0,0,0,11.53,6.892c8.266,2.711,14.031-3.016,11.454-8.629-2.138-4.563-7.235-4.772-12.447-3.684a52.95,52.95,0,0,0-5.861,1.623l.115-.115a131.6,131.6,0,0,1,22.908-14.356,32.453,32.453,0,0,0,10.652,9.049c7.731,3.99,14.337-.745,12.618-6.7-1.394-4.849-6.376-5.861-11.721-5.727a60.258,60.258,0,0,0-6.223.687c8.59-4.066,17.391-7.9,25.848-12.389h0l.172-.1a32.644,32.644,0,0,0,13.153,6.872c8.457,2.1,13.783-4.047,10.729-9.45-2.5-4.391-7.636-4.2-12.714-2.749-1.432.42-2.864.935-4.238,1.47a190.922,190.922,0,0,0,16.417-10.729l.458.477a.709.709,0,0,1,0-.21,33.083,33.083,0,0,0,13.248,6.968c8.457,2.081,13.764-4.047,10.709-9.45C266,285.631,260.924,285.822,255.789,287.292ZM122.312,460.266c-1.718-2.043-3.36-4.143-4.982-6.281.4-.344.821-.725,1.241-1.145a29.832,29.832,0,0,0,7.331,1.317v.4l1.165-.248c.592,3.016,1.241,6.013,1.909,9.01A7.884,7.884,0,0,0,122.312,460.266Zm6.242-71.874c-.592,2.234-1.107,4.505-1.565,6.777a2.213,2.213,0,0,0-.305-.4q0-6.987.229-13.936c.134-3.245.363-6.471.649-9.717a31.919,31.919,0,0,0,5.154,4.3,115.369,115.369,0,0,0-4.162,12.981Zm7.827-21.381c0-.84.191-1.7.248-2.539v-1.279c.687-.21,1.374-.458,2.081-.745C137.908,363.957,137.126,365.465,136.381,367.011Zm9.946-16.15a6.185,6.185,0,0,0-3.513-3.264c-4.7-1.909-8.533,1.527-11.569,5.918l-.134.21h-.305a5.734,5.734,0,0,0-.974-.134,1.7,1.7,0,0,1,.134-.8,173.944,173.944,0,0,1,4.868-20.388,32.587,32.587,0,0,0,13.077-1.012,11.282,11.282,0,0,0,6.414-4.429,30.028,30.028,0,0,0,4.7,10.709,87.811,87.811,0,0,0-12.695,13.248Z" transform="translate(-50.568 -178.88)" fill="#eb414f"/><path d="M255.789,287.292a104.984,104.984,0,0,0-10.709,4.142c1.909-1.413,3.818-2.844,5.727-4.314a272.492,272.492,0,0,0,24.244-21.953,260.1,260.1,0,0,1-28.635,24.111,65.572,65.572,0,0,0,3.665-7.521c1.814-4.753,2.253-9.545-2.291-12.084-5.574-3.131-12.351,1.546-10.557,9.545a29.494,29.494,0,0,0,6.147,12.122,184.3,184.3,0,0,1-20.6,12.351l-.687.344a65.533,65.533,0,0,0,3.99-8.113c1.814-4.734,2.253-9.545-2.291-12.065-5.574-3.15-12.351,1.546-10.557,9.545a29.437,29.437,0,0,0,6.052,11.988c-8.571,4.219-17.448,7.808-26.249,11.7l-1.279.573a55.1,55.1,0,0,0,4.773-5.88c2.883-4.181,4.41-8.724.592-12.275-4.7-4.353-12.37-1.355-12.5,6.891a29.246,29.246,0,0,0,3.112,13.115,134.988,134.988,0,0,0-23.366,13.859l-.229.191a49.846,49.846,0,0,0,2.692-4.849c2.157-4.6,2.959-9.335-1.374-12.218a7.082,7.082,0,0,0-10.652,3.3,6.624,6.624,0,0,0-2.291-2.176c-4.372-2.52-8.667.21-12.332,4.066a38.638,38.638,0,0,0-2.73,3.169,134.069,134.069,0,0,1,10.671-22.736,32.3,32.3,0,0,0,12.828,2.749c8.705,0,12.389-7.254,8.113-11.759-3.474-3.646-8.361-2.253-12.981.42a49.073,49.073,0,0,0-4.429,2.9,131.852,131.852,0,0,1,15.024-18.67,32.681,32.681,0,0,0,12.237,6.338c8.457,2.081,13.783-4.047,10.709-9.45-2.482-4.391-7.636-4.219-12.695-2.749a65.66,65.66,0,0,0-7.082,2.615c2.31-2.234,4.7-4.391,7.1-6.529,3.188-2.711,6.471-5.326,9.793-7.884a32.7,32.7,0,0,0,12.2,6.09c8.457,2.081,13.764-4.047,10.709-9.45-2.482-4.391-7.636-4.219-12.695-2.749-1.2.344-2.386.764-3.57,1.2,4.41-3.15,8.9-6.223,13.363-9.278l4.162-2.844a32.682,32.682,0,0,0,12.828,6.605c8.457,2.081,13.764-4.047,10.71-9.45-2.482-4.391-7.636-4.219-12.695-2.749a58.293,58.293,0,0,0-5.9,2.119h0c.859-.611,1.718-1.222,2.558-1.909,1.584-1.126,3.131-2.291,4.677-3.474,1.909-1.432,3.7-3.035,5.574-4.543,1.05-.84,2.081-1.737,3.093-2.654a32.7,32.7,0,0,0,12.9,6.662c8.457,2.081,13.764-4.047,10.709-9.45-2.482-4.391-7.636-4.219-12.695-2.749a71.444,71.444,0,0,0-8.323,3.15h0c3.455-3.207,6.8-6.548,9.946-10.022l.63-.725c1.355-1.508,2.711-3.054,4.009-4.62s2.959-3.684,4.372-5.574a107.422,107.422,0,0,0,14.2-24.817,107.994,107.994,0,0,1-14.661,24.435,154.82,154.82,0,0,1-19.605,20.713l-.783.668a72.071,72.071,0,0,0,4.352-8.762c1.909-4.734,2.253-9.545-2.291-12.065-5.574-3.15-12.351,1.546-10.557,9.545a29.513,29.513,0,0,0,6.7,12.752l-1.68,1.451-1.909,1.642c-1.126.9-2.253,1.756-3.4,2.615l-1.909,1.394c-1.623,1.2-3.283,2.367-4.944,3.513l-2.367,1.623-2.711,1.909a70.641,70.641,0,0,0,4.162-8.419c1.813-4.753,2.253-9.545-2.291-12.084-5.574-3.131-12.351,1.565-10.557,9.545a29.685,29.685,0,0,0,6.4,12.428l-2,1.3-7.445,4.868-1.451.954-4.143,2.768-1.794,1.2c-1.909,1.317-3.818,2.654-5.727,4.028a70.006,70.006,0,0,0,4.238-8.552c1.814-4.734,2.253-9.545-2.291-12.065-5.574-3.15-12.351,1.546-10.557,9.545a29.723,29.723,0,0,0,6.529,12.561c-3.245,2.386-6.433,4.83-9.545,7.388-2.272,1.909-4.524,3.818-6.7,5.88a49.023,49.023,0,0,0,2.539-5.46c1.909-4.753,2.253-9.545-2.291-12.065-5.574-3.15-12.351,1.546-10.557,9.545a29.685,29.685,0,0,0,6.052,11.989,135.538,135.538,0,0,0-16.646,20.1,51.71,51.71,0,0,0,1.279-6.338c.611-5.04-.115-9.774-5.135-11.149-6.185-1.7-11.626,4.486-7.941,11.855a29.742,29.742,0,0,0,8.858,10.251A142.374,142.374,0,0,0,132.735,325.2a43.2,43.2,0,0,0-.534-5.383c-.84-5.021-2.883-9.354-8.094-9.259-6.4.134-9.85,7.636-4.238,13.63a29.3,29.3,0,0,0,10.748,7.082,179.437,179.437,0,0,0-5.307,20.369c-.21,1.088-.382,2.176-.592,3.264-.229.21-.458.42-.668.649-.229-.935-.5-1.909-.8-2.806-1.6-4.811-4.3-8.8-9.411-7.884-6.319,1.088-8.59,9.01-2.1,14.107a29.171,29.171,0,0,0,11.168,5.212l.229.554c-.687,5.173-1.222,10.385-1.546,15.616-.248,3.818-.382,7.808-.458,11.721-5.46,0-9.316,5.994-5.555,12.485a27.758,27.758,0,0,0,6.013,7.1c.458,7.35,1.184,14.7,2.157,21.992A6.071,6.071,0,0,0,117.9,432.3c-3.436.935-4.982,3.7-5.555,7.1a7.006,7.006,0,0,0-1.909,4.715c-2.558-3.818-4.963-7.636-7.311-11.683a32.338,32.338,0,0,0,8.705-10.156c4.123-7.636-.515-14.337-6.51-12.714-4.868,1.317-5.956,6.3-5.727,11.626a52.066,52.066,0,0,0,.573,6.033c-.859-1.47-1.7-2.959-2.52-4.429-2.1-3.818-3.818-7.636-5.88-11.454-.5-.935-.935-1.909-1.355-2.863a32.071,32.071,0,0,0,10.442-8.342c5.479-6.758,2.176-14.184-4.009-13.707-5.021.4-7.025,5.078-7.865,10.347a54.257,54.257,0,0,0-.611,6.93l-1.794-4.142a214.648,214.648,0,0,1-9.411-28.9,32.7,32.7,0,0,0,12.1-7.636c6.128-6.2,3.589-13.9-2.615-14.05-5.04-.115-7.5,4.333-8.877,9.545a71.894,71.894,0,0,0-1.527,8.4c-1.317-5.727-2.463-11.359-3.417-17.086-.649-3.551-1.069-7.159-1.527-10.748a33.005,33.005,0,0,0,13.5-6.052c6.872-5.345,5.345-13.363-.783-14.26-4.982-.783-8,3.322-10.022,8.266a82.082,82.082,0,0,0-3,9.545c-.382-4.162-.821-8.342-1.012-12.523a192.6,192.6,0,0,1,.115-25.924,193.174,193.174,0,0,0-.9,25.962c0,3.99.344,7.961.592,11.95a65.4,65.4,0,0,0-3.818-7.884c-2.615-4.372-6.071-7.636-10.9-5.727-5.918,2.444-6.433,10.652.993,14.241a29.7,29.7,0,0,0,13.974,2.654c.344,3.551.63,7.121,1.184,10.652.744,5.632,1.7,11.225,2.806,16.78a53.837,53.837,0,0,0-4.047-6.128c-3.15-3.99-7.025-6.815-11.454-4.238-5.555,3.188-5,11.454,2.825,13.993a29.532,29.532,0,0,0,13.726.916,218.924,218.924,0,0,0,8.571,29.3l1.145,2.863a41.73,41.73,0,0,0-3.264-3.818C78,395.99,73.9,393.565,69.624,396.6c-5.212,3.723-3.818,11.836,4.219,13.63a29.646,29.646,0,0,0,13.458-.382c.382.974.8,1.909,1.279,2.9,1.909,3.933,3.608,7.961,5.612,11.817l1.737,3.3a37.792,37.792,0,0,0-3.093-2.443c-4.162-2.921-8.667-4.524-12.275-.764-4.41,4.639-1.546,12.351,6.7,12.6a29.323,29.323,0,0,0,12.294-2.348c2.348,4.276,4.792,8.5,7.426,12.638.974,1.584,1.909,3.15,3.016,4.715a47.532,47.532,0,0,0-4.753-3.913c-4.143-2.921-8.667-4.524-12.256-.764-4.429,4.639-1.546,12.351,6.7,12.6a29.742,29.742,0,0,0,13.592-3.112q2.024,2.864,4.238,5.727c-3.073,3.57-2.081,9.545,4.162,12.275a28.12,28.12,0,0,0,9.545,2.119l1.184.9.21.153a457.32,457.32,0,0,0,14.012,43.563q3.455,9.144,7.292,18.116H131.017v90.353H201V539.909H163.6c-3.188-6.968-6.242-14.012-9.106-21.133-4.677-11.7-8.915-23.557-12.618-35.6h0a14.864,14.864,0,0,0,1.909.439,8.592,8.592,0,0,0,2.577.114l-.993-6.281H144.7a10.95,10.95,0,0,1-1.2-.229,16.843,16.843,0,0,1-2.558-.954l-.993-.458a32.168,32.168,0,0,0,10.079-5.727c6.643-5.727,4.753-13.554-1.413-14.222-5.021-.554-7.846,3.684-9.545,8.705-.515,1.432-.935,2.921-1.317,4.372-.344-1.336-.725-2.673-1.05-4.009-1.012-3.952-1.909-7.941-2.825-11.931a32.167,32.167,0,0,0,10.9-5.994c6.643-5.727,4.753-13.535-1.413-14.2-5.021-.554-7.846,3.684-9.545,8.705a45.82,45.82,0,0,0-1.336,4.448c-.573-2.921-1.145-5.822-1.642-8.743-.382-2.176-.706-4.333-1.031-6.51-.134-3.093-.172-6.185-.134-9.3,0-1.7,0-3.4.153-5.116a32.223,32.223,0,0,0,11.588,1.489c8.686-.573,11.912-8.018,7.369-12.237-3.7-3.455-8.5-1.737-12.943,1.2a58.643,58.643,0,0,0-5.727,4.41,139.162,139.162,0,0,1,3.283-21.572,114.389,114.389,0,0,1,3.665-12.332,32.451,32.451,0,0,0,12.428,1.737c8.686-.554,11.912-8,7.369-12.237-3.7-3.436-8.5-1.737-12.943,1.222a54.8,54.8,0,0,0-4.562,3.436,89.539,89.539,0,0,1,5.842-11.454,84.11,84.11,0,0,1,16.456-19.739,32.454,32.454,0,0,0,11.53,6.892c8.266,2.711,14.031-3.016,11.454-8.629-2.138-4.563-7.235-4.772-12.447-3.684a52.95,52.95,0,0,0-5.861,1.623l.115-.115a131.6,131.6,0,0,1,22.908-14.356,32.453,32.453,0,0,0,10.652,9.049c7.731,3.99,14.337-.745,12.618-6.7-1.394-4.849-6.376-5.861-11.721-5.727a60.258,60.258,0,0,0-6.223.687c8.59-4.066,17.391-7.9,25.848-12.389h0l.172-.1a32.644,32.644,0,0,0,13.153,6.872c8.457,2.1,13.783-4.047,10.729-9.45-2.5-4.391-7.636-4.2-12.714-2.749-1.432.42-2.864.935-4.238,1.47a190.922,190.922,0,0,0,16.417-10.729l.458.477a.709.709,0,0,1,0-.21,33.083,33.083,0,0,0,13.248,6.968c8.457,2.081,13.764-4.047,10.709-9.45C266,285.631,260.924,285.822,255.789,287.292ZM122.312,460.266c-1.718-2.043-3.36-4.143-4.982-6.281.4-.344.821-.725,1.241-1.145a29.832,29.832,0,0,0,7.331,1.317v.4l1.165-.248c.592,3.016,1.241,6.013,1.909,9.01A7.884,7.884,0,0,0,122.312,460.266Zm6.242-71.874c-.592,2.234-1.107,4.505-1.565,6.777a2.213,2.213,0,0,0-.305-.4q0-6.987.229-13.936c.134-3.245.363-6.471.649-9.717a31.919,31.919,0,0,0,5.154,4.3,115.369,115.369,0,0,0-4.162,12.981Zm7.827-21.381c0-.84.191-1.7.248-2.539v-1.279c.687-.21,1.374-.458,2.081-.745C137.908,363.957,137.126,365.465,136.381,367.011Zm9.946-16.15a6.185,6.185,0,0,0-3.513-3.264c-4.7-1.909-8.533,1.527-11.569,5.918l-.134.21h-.305a5.734,5.734,0,0,0-.974-.134,1.7,1.7,0,0,1,.134-.8,173.944,173.944,0,0,1,4.868-20.388,32.587,32.587,0,0,0,13.077-1.012,11.282,11.282,0,0,0,6.414-4.429,30.028,30.028,0,0,0,4.7,10.709,87.811,87.811,0,0,0-12.695,13.248Z" transform="translate(-50.568 -178.88)" fill="#fff" opacity="0.5"/></g><g transform="translate(330.106 692.898)"><path d="M665.334,421.266c0,4.582-104.842,8.285-234.157,8.285S197,425.848,197,421.266,301.842,413,431.176,413,665.334,416.7,665.334,421.266Z" transform="translate(-197 -413)" fill="#eb414f"/><path d="M665.334,421.266c0,4.582-104.842,8.285-234.157,8.285S197,425.848,197,421.266,301.842,413,431.176,413,665.334,416.7,665.334,421.266Z" transform="translate(-197 -413)" fill="#2e353a" opacity="0.3"/></g><g transform="translate(344.252 287.294)"><path d="M343.718,378.39s11.454,48.947,6.433,57c-6.471,10.519-75.482,16.856-75.482,16.856H426.836s19.09-5.345,13.363-20.674c-4.448-11.874-25.733-53.185-25.733-53.185Z" transform="translate(-140.544 -38.856)" fill="#fff" stroke="#2e353a" stroke-linecap="round" stroke-linejoin="round" stroke-width="1"/><path d="M340.4,378.39s12.141,49.367,6.433,57-72.16,13.458-72.16,13.458H427.542s12.867-5.192,9.3-17.276-25.714-53.185-25.714-53.185Z" transform="translate(-140.544 -38.856)" fill="#fff" stroke="#2e353a" stroke-linecap="round" stroke-linejoin="round" stroke-width="1"/><path d="M379.783,378.39H309.15s7.178,29.246,7.884,46.2h85.9C395.895,408.285,379.783,378.39,379.783,378.39Z" transform="translate(-109.202 -38.856)" fill="#eb414f"/><rect width="152.166" height="3.15" transform="translate(134.126 410.243)" stroke-width="1" stroke="#2e353a" stroke-linecap="round" stroke-linejoin="round" fill="#fff"/><path d="M9.5,0H449.633a9.5,9.5,0,0,1,9.5,9.5V334.864a9.5,9.5,0,0,1-9.5,9.5H9.5a9.5,9.5,0,0,1-9.5-9.5V9.5A9.5,9.5,0,0,1,9.5,0Z" transform="translate(10.824)" fill="#eb414f" stroke="#2e353a" stroke-linecap="round" stroke-width="1"/><rect width="459.132" height="344.364" rx="8.48" stroke-width="1" stroke="#2e353a" stroke-linecap="round" stroke-linejoin="round" fill="#2e353a"/><path d="M204.41,352.87H663.542v37.321a16.188,16.188,0,0,1-16.188,16.188H220.6a16.188,16.188,0,0,1-16.188-16.188Z" transform="translate(-204.41 -62.054)" fill="#fff" stroke="#2e353a" stroke-linecap="round" stroke-linejoin="round" stroke-width="1"/><path d="M0,0H412.954V243.282H0Z" transform="translate(23.099 21.419)" fill="#e5636e" stroke="#2e353a" stroke-linecap="round" stroke-width="1"/><path d="M337.172,370.926a8.457,8.457,0,1,0-2.47,5.992,8.476,8.476,0,0,0,2.47-5.992Z" transform="translate(-99.139 -53.345)" fill="#2e353a" stroke="#2e353a" stroke-linecap="round" stroke-linejoin="round" stroke-width="1"/><rect width="405.833" height="21.323" transform="translate(26.344 38.562)" stroke-width="1" stroke="#2e353a" stroke-linecap="round" stroke-linejoin="round" fill="#2e353a"/><path d="M285.158,238.182,280.31,225.01h-62.1v207.6H624.043V238.182Z" transform="translate(-191.866 -178.278)" fill="#fff" stroke="#2e353a" stroke-linecap="round" stroke-linejoin="round" stroke-width="1"/><path d="M371.3,428.585s2.615,6.319,17.028,8.514,111.619-9.182,111.619-9.182,6.109-1.527,6.548-4.582-15.73-12.008-45.644-15.73a172.249,172.249,0,0,0-77.1,8.743C365.19,423.125,371.3,428.585,371.3,428.585Z" transform="translate(-53.584 -13.321)" fill="#fff" stroke="#2e353a" stroke-linecap="round" stroke-linejoin="round" stroke-width="1"/><path d="M479.017,412.45c-6.491,0-21.171.687-33.121,1.718s-31.747,8.533-42.666,12.275-28.329,2.749-28.329,2.749a38.509,38.509,0,0,0,9.278,2.482c14.413,2.176,111.619-9.182,111.619-9.182a13.363,13.363,0,0,0,5.727-3.054C495.358,414.97,484.324,412.45,479.017,412.45Z" transform="translate(-49.435 -7.896)" fill="#eb414f"/><path d="M439.35,415a17.17,17.17,0,0,1,2.424,1.546" transform="translate(9.149 -5.578)" fill="none" stroke="#2e353a" stroke-linecap="round" stroke-linejoin="round" stroke-width="1"/><path d="M376.45,430.048a76.819,76.819,0,0,0,29.685-5.021,179.656,179.656,0,0,1,63-12.466c12.542-.1,20.216,1.623,24.817,3.36" transform="translate(-48.026 -7.798)" fill="none" stroke="#2e353a" stroke-linecap="round" stroke-linejoin="round" stroke-width="1"/></g><g transform="translate(103.909 105.08)"><path d="M478.948,285.05H352.42v77.009H478.356" transform="translate(170.473 58.512)" fill="none" stroke="#2e353a" stroke-linecap="round" stroke-linejoin="round" stroke-width="0.5"/><line x2="126.528" transform="translate(523.466 365.515)" stroke-width="0.5" stroke="#2e353a" stroke-linecap="round" stroke-linejoin="round" fill="none"/><line x2="126.528" transform="translate(523.466 387.411)" stroke-width="0.5" stroke="#2e353a" stroke-linecap="round" stroke-linejoin="round" fill="none"/><line x2="126.528" transform="translate(523.466 409.308)" stroke-width="0.5" stroke="#2e353a" stroke-linecap="round" stroke-linejoin="round" fill="none"/><line x1="5.192" transform="translate(514.226 344.077)" stroke-width="0.5" stroke="#2e353a" stroke-linecap="round" stroke-linejoin="round" fill="none"/><line x1="5.192" transform="translate(514.226 354.92)" stroke-width="0.5" stroke="#2e353a" stroke-linecap="round" stroke-linejoin="round" fill="none"/><line x1="5.192" transform="translate(514.226 365.783)" stroke-width="0.5" stroke="#2e353a" stroke-linecap="round" stroke-linejoin="round" fill="none"/><line x1="5.192" transform="translate(514.226 376.645)" stroke-width="0.5" stroke="#2e353a" stroke-linecap="round" stroke-linejoin="round" fill="none"/><line x1="5.192" transform="translate(514.226 387.488)" stroke-width="0.5" stroke="#2e353a" stroke-linecap="round" stroke-linejoin="round" fill="none"/><line x1="5.192" transform="translate(514.226 398.35)" stroke-width="0.5" stroke="#2e353a" stroke-linecap="round" stroke-linejoin="round" fill="none"/><line x1="5.192" transform="translate(514.226 409.212)" stroke-width="0.5" stroke="#2e353a" stroke-linecap="round" stroke-linejoin="round" fill="none"/><line x1="5.192" transform="translate(514.226 420.055)" stroke-width="0.5" stroke="#2e353a" stroke-linecap="round" stroke-linejoin="round" fill="none"/><rect width="5.822" height="45.873" transform="translate(527.493 374.392)" stroke-width="1" stroke="#2e353a" stroke-linecap="round" stroke-linejoin="round" fill="#2e353a"/><rect width="5.822" height="67.827" transform="translate(537.821 352.439)" stroke-width="1" stroke="#2e353a" stroke-linecap="round" stroke-linejoin="round" fill="#eb414f"/><rect width="5.822" height="45.873" transform="translate(548.168 374.392)" stroke-width="1" stroke="#2e353a" stroke-linecap="round" stroke-linejoin="round" fill="#fff"/><rect width="5.822" height="60.725" transform="translate(571.419 359.54)" stroke-width="1" stroke="#2e353a" stroke-linecap="round" stroke-linejoin="round" fill="#2e353a"/><path d="M0,0H5.822V51.676H0Z" transform="translate(581.747 368.589)" fill="#eb414f" stroke="#2e353a" stroke-linecap="round" stroke-width="1"/><rect width="5.822" height="25.848" transform="translate(592.094 394.417)" stroke-width="1" stroke="#2e353a" stroke-linecap="round" stroke-linejoin="round" fill="#fff"/><rect width="5.822" height="45.873" transform="translate(615.345 374.392)" stroke-width="1" stroke="#2e353a" stroke-linecap="round" stroke-linejoin="round" fill="#2e353a"/><path d="M0,0H5.822V67.827H0Z" transform="translate(625.673 352.439)" fill="#eb414f" stroke="#2e353a" stroke-linecap="round" stroke-width="1"/><rect width="5.822" height="45.873" transform="translate(636.02 374.392)" stroke-width="1" stroke="#2e353a" stroke-linecap="round" stroke-linejoin="round" fill="#fff"/><path d="M333.18,376.157l64.562,48.317V357.01L333.18,105.08Z" transform="translate(152.984 -105.08)" fill="#eb414f" stroke="#fff" stroke-linecap="round" stroke-linejoin="round" stroke-width="1" opacity="0.4"/><path d="M629.236,295.4H419.247L78.51,247.08H564.674Z" transform="translate(-78.51 23.997)" fill="#eb414f" stroke="#fff" stroke-linecap="round" stroke-linejoin="round" stroke-width="1" opacity="0.4"/><rect width="486.164" height="244.351" stroke-width="1" stroke="#2e353a" stroke-linecap="round" stroke-linejoin="round"/><line x2="92.911" transform="translate(18.746 12.676)" stroke-width="2" stroke="#fff" stroke-linecap="round" stroke-linejoin="round" fill="none"/><path d="M332.772,114.156a6.357,6.357,0,1,0-1.855,4.507,6.376,6.376,0,0,0,1.855-4.507Z" transform="translate(141.021 -102.626)" fill="#fff"/><path d="M318.484,114.138a6.357,6.357,0,1,0-1.855,4.507,6.357,6.357,0,0,0,1.855-4.507Z" transform="translate(128.068 -102.608)" fill="#fff"/><rect width="486.164" height="244.351" transform="translate(0 26.726)" stroke-width="1" stroke="#2e353a" stroke-linecap="round" stroke-linejoin="round" fill="#fff"/><path d="M525.4,132.42H96.51V328.4H524.125" transform="translate(-62.148 -80.228)" fill="none" stroke="#2e353a" stroke-linecap="round" stroke-linejoin="round" stroke-width="0.5"/><line x2="428.875" transform="translate(35.641 108.049)" stroke-width="0.5" stroke="#2e353a" stroke-linecap="round" stroke-linejoin="round" fill="none"/><line x2="428.875" transform="translate(35.641 163.792)" stroke-width="0.5" stroke="#2e353a" stroke-linecap="round" stroke-linejoin="round" fill="none"/><line x2="428.875" transform="translate(35.641 219.534)" stroke-width="0.5" stroke="#2e353a" stroke-linecap="round" stroke-linejoin="round" fill="none"/><line x1="11.454" transform="translate(15.272 53.452)" stroke-width="0.5" stroke="#2e353a" stroke-linecap="round" stroke-linejoin="round" fill="none"/><line x1="11.454" transform="translate(15.272 81.094)" stroke-width="0.5" stroke="#2e353a" stroke-linecap="round" stroke-linejoin="round" fill="none"/><line x1="11.454" transform="translate(15.272 108.736)" stroke-width="0.5" stroke="#2e353a" stroke-linecap="round" stroke-linejoin="round" fill="none"/><line x1="11.454" transform="translate(15.272 136.359)" stroke-width="0.5" stroke="#2e353a" stroke-linecap="round" stroke-linejoin="round" fill="none"/><line x1="11.454" transform="translate(15.272 164.002)" stroke-width="0.5" stroke="#2e353a" stroke-linecap="round" stroke-linejoin="round" fill="none"/><line x1="11.454" transform="translate(15.272 191.625)" stroke-width="0.5" stroke="#2e353a" stroke-linecap="round" stroke-linejoin="round" fill="none"/><line x1="11.454" transform="translate(15.272 219.267)" stroke-width="0.5" stroke="#2e353a" stroke-linecap="round" stroke-linejoin="round" fill="none"/><line x1="11.454" transform="translate(15.272 246.909)" stroke-width="0.5" stroke="#2e353a" stroke-linecap="round" stroke-linejoin="round" fill="none"/><path d="M98.18,171.737s37.531,1.642,45.167-3.436,17.83-15.272,24.187-14.012a212.462,212.462,0,0,1,20.369,6.376s15.272-8.915,19.09-8.915,16.532,6.357,26.726,6.357h29.265l11.454,8.915,21.629-6.357,24.187,10.175,15.272-2.539,21.629,11.454h10.194l20.35,8.9h26.726l15.272,8.915,24.187,1.279,19.09,19.09,15.272-2.558,16.551,6.376,15.272-1.279" transform="translate(-60.63 -62.657)" fill="none" stroke="#eb414f" stroke-linecap="round" stroke-linejoin="round" stroke-width="3"/><path d="M97.84,186.357h47.095l28,3.818,22.908,1.279,20.35,13.993,29.284-8.915L281.1,209.265l39.459-6.357,13.993,6.357,31.823-35.641H398.2l19.09-20.35,20.35,8.9,12.733-11.454,16.551,8.915L477.1,146.9l6.357,1.279,16.551-5.1,7.636,5.1,12.733-2.539" transform="translate(-60.939 -70.538)" fill="none" stroke="#2e353a" stroke-linecap="round" stroke-linejoin="round" stroke-width="3"/><path d="M98.51,251.678h49.634l38.18-21.629,28,12.733h20.35l10.194,3.818,22.908-11.454,30.544-19.09L308.5,230.049l19.09-2.539,10.175,2.539,25.466,1.279,27.986-22.908,14.012,16.532,17.811-1.26,10.175,6.357,15.272-3.818,20.369,7.636,28-3.818,15.272,2.539,8.9-2.539" transform="translate(-60.33 -11.144)" fill="none" stroke="#eb414f" stroke-linecap="round" stroke-linejoin="round" stroke-width="3"/><path d="M257.67,256.42l113.261,48.3v85.275L257.67,513.485Z" transform="translate(84.346 32.487)" fill="#eb414f" stroke="#fff" stroke-linecap="round" stroke-linejoin="round" stroke-width="1" opacity="0.4"/><rect width="250.384" height="244.351" transform="translate(91.632 288.907)" stroke-width="1" stroke="#2e353a" stroke-linecap="round" stroke-linejoin="round"/><rect width="250.384" height="230.358" transform="translate(91.632 315.633)" stroke-width="1" stroke="#2e353a" stroke-linecap="round" stroke-linejoin="round" fill="#fff"/><path d="M238.421,364.275l-99.268-.1a96.156,96.156,0,0,1,30.353-71.339Z" transform="translate(-23.392 65.593)" stroke="#fff" stroke-miterlimit="10" stroke-width="1"/><path d="M238.393,330.305l-25.771,95.812a98.027,98.027,0,0,1-73.439-95.908Z" transform="translate(-23.364 99.562)" stroke="#fff" stroke-miterlimit="10" stroke-width="1"/><path d="M205.8,373.416l46.675-87.566A99.268,99.268,0,0,1,179.93,469.228Z" transform="translate(13.68 59.239)" fill="#eb414f" stroke="#fff" stroke-miterlimit="10" stroke-width="1"/><path d="M193.577,377.546l-5.1-99.1A94.475,94.475,0,0,1,240.252,289.9Z" transform="translate(21.452 52.321)" stroke="#fff" stroke-miterlimit="10" stroke-width="1"/><path d="M223.937,377.446,155.08,306.011a94.075,94.075,0,0,1,63.76-27.661Z" transform="translate(-8.908 52.422)" stroke="#fff" stroke-miterlimit="10" stroke-width="1"/><path d="M258.384,266.747a6.357,6.357,0,1,0-6.357,6.357,6.357,6.357,0,0,0,6.357-6.357Z" transform="translate(73.438 36.096)" fill="#fff"/><path d="M244.142,266.765a6.376,6.376,0,1,0-6.376,6.357,6.376,6.376,0,0,0,6.376-6.357Z" transform="translate(60.457 36.078)" fill="#fff"/><path d="M0,0H250.384V29.532H0Z" transform="translate(91.632 315.633)" fill="#eb414f" stroke="#fff" stroke-linecap="round" stroke-width="1" opacity="0.73"/></g></g></svg>