<svg xmlns="http://www.w3.org/2000/svg" width="484.79" height="475.859" viewBox="0 0 484.79 475.859"><g transform="translate(-39.68 -34.05)"><g transform="translate(39.68 34.05)"><path d="M488.979,328.983H303V221.36H488.979Zm-184.845-1.135h183.71V222.495H304.135Z" transform="translate(-4.189 -8.804)" fill="#e0e0e0"/><rect width="122.704" height="3.597" transform="translate(323.719 269.942)" fill="#f0f0f0"/><rect width="131.158" height="3.926" transform="translate(323.719 283.355)" fill="#f0f0f0"/><rect width="131.158" height="3.926" transform="translate(323.719 296.927)" fill="#f0f0f0"/><rect width="42.883" height="9.339" transform="translate(323.719 250.458)" fill="#f0f0f0"/><rect width="184.81" height="17.135" transform="translate(299.412 213.123)" fill="#e0e0e0"/><path d="M453.862,236.129c-.238-.227,2.145-3.1,5.311-6.411s5.946-5.821,6.173-5.606-2.145,3.1-5.311,6.423S454.089,236.356,453.862,236.129Z" transform="translate(16.142 -8.435)" fill="#fff"/><path d="M465.366,236.129c-.227.227-3-2.27-6.173-5.594s-5.549-6.2-5.311-6.423,3,2.27,6.173,5.606S465.581,235.9,465.366,236.129Z" transform="translate(16.144 -8.435)" fill="#fff"/><rect width="184.81" height="106.499" transform="translate(71.128)" fill="#e6e6e6"/><rect width="122.704" height="3.597" transform="translate(95.446 56.83)" fill="#f0f0f0"/><rect width="131.158" height="3.926" transform="translate(95.446 70.243)" fill="#f0f0f0"/><rect width="131.158" height="3.926" transform="translate(95.446 83.815)" fill="#f0f0f0"/><rect width="42.883" height="9.339" transform="translate(95.446 37.346)" fill="#f0f0f0"/><rect width="184.81" height="17.135" transform="translate(71.128)" fill="#e0e0e0"/><path d="M252.142,48.248c-.238-.216,2.145-3.1,5.311-6.412s5.946-5.821,6.173-5.594-2.145,3.1-5.311,6.412S252.369,48.452,252.142,48.248Z" transform="translate(-11.046 -33.757)" fill="#fff"/><path d="M263.626,48.248c-.227.227-3-2.27-6.173-5.594s-5.549-6.185-5.311-6.412,3,2.27,6.173,5.594S263.864,48.032,263.626,48.248Z" transform="translate(-11.046 -33.757)" fill="#fff"/><path d="M225.625,221.174H39.68V113.54H225.625Zm-184.81-1.135H224.49V114.675H40.815Z" transform="translate(-39.68 -23.336)" fill="#e0e0e0"/><rect width="122.704" height="3.597" transform="translate(24.886 147.601)" fill="#f0f0f0"/><rect width="131.158" height="3.926" transform="translate(24.886 161.014)" fill="#f0f0f0"/><rect width="131.158" height="3.926" transform="translate(24.886 174.586)" fill="#f0f0f0"/><rect width="42.883" height="9.339" transform="translate(24.886 128.117)" fill="#f0f0f0"/><rect width="184.81" height="17.135" transform="translate(0.567 90.771)" fill="#e0e0e0"/><rect width="218.218" height="195.364" transform="translate(182.325 222.497)" fill="#e6e6e6"/><rect width="170.943" height="177.605" transform="translate(22.355 160.957)" fill="#f0f0f0"/><rect width="170.943" height="19.348" transform="translate(22.355 160.957)" fill="#e0e0e0"/><path d="M72.671,184.685a3.586,3.586,0,1,1-3.586-3.745A3.677,3.677,0,0,1,72.671,184.685Z" transform="translate(-36.2 -14.252)" fill="#fff"/><path d="M85.5,184.685a3.6,3.6,0,1,1-3.586-3.745A3.677,3.677,0,0,1,85.5,184.685Z" transform="translate(-34.473 -14.252)" fill="#fff"/><path d="M98.334,184.685a3.6,3.6,0,1,1-3.586-3.745A3.677,3.677,0,0,1,98.334,184.685Z" transform="translate(-32.744 -14.252)" fill="#fff"/><rect width="218.218" height="217.492" transform="translate(242.162 38.844)" fill="#f0f0f0"/><rect width="218.218" height="25.476" transform="translate(242.162 38.844)" fill="#e0e0e0"/><path d="M270.584,79.866a4.732,4.732,0,1,1-4.732-4.936,4.845,4.845,0,0,1,4.732,4.936Z" transform="translate(-9.834 -28.54)" fill="#fff"/><path d="M286.105,76.517a4.732,4.732,0,1,1-6.809-.159,4.823,4.823,0,0,1,6.809.159Z" transform="translate(-7.573 -28.527)" fill="#fff"/><path d="M304.364,79.866a4.732,4.732,0,1,1-4.732-4.936,4.846,4.846,0,0,1,4.732,4.936Z" transform="translate(-5.281 -28.54)" fill="#fff"/></g><g transform="translate(100.947 509.319)"><path d="M445.645,453.165c0,.159-78.8.3-175.97.3s-176-.136-176-.3,78.788-.3,176-.3S445.645,453.017,445.645,453.165Z" transform="translate(-93.67 -452.87)" fill="#263238"/></g><g transform="translate(355.257 249.799)"><path d="M338.661,345.069c-17.532-12.244-21.5-34.974-20.812-55.411.113-3.4-.261-7.013,1.362-10s5.413-5.038,8.465-3.609c2.531,1.192,3.631,4.142,5.05,6.582a19.927,19.927,0,0,0,8,7.637c2.167,1.135,4.857,1.816,7,.635,2.95-1.623,3.291-5.674,3.268-9.078q0-9.5-.113-18.974a31.582,31.582,0,0,1,1.021-10.077c1.055-3.223,3.4-6.207,6.616-7.115s7.217.965,7.943,4.278a32.68,32.68,0,0,1,.1,4.221c.091,1.418.749,2.973,2.077,3.4s2.712-.556,3.733-1.555c3.5-3.4,5.878-7.841,8.091-12.222s4.38-8.885,7.558-12.619,7.569-6.7,12.483-6.979,10.031,2.735,11.257,7.5-1.555,9.634-4.539,13.5a75.881,75.881,0,0,1-15.762,15.036,6.173,6.173,0,0,0-2.644,2.826c-.738,2.27,1.407,4.539,3.643,5.254,2.531.84,5.277.579,7.943.9s5.5,1.475,6.514,3.972c1.384,3.472-1.521,7.1-4.369,9.487a65.114,65.114,0,0,1-19.2,11.087c-2.5.908-5.118,1.714-7.138,3.461s-3.223,4.8-2.009,7.195,4.335,3.155,6.956,2.667,4.948-1.9,7.444-2.837c4.664-1.759,10.678-1.441,13.617,2.587a10.735,10.735,0,0,1,1.135,9.5,24.773,24.773,0,0,1-5.141,8.386,65.4,65.4,0,0,1-27.984,19.552c-10.814,3.745-20.835,4.766-31.581.828" transform="translate(-317.775 -224.174)" fill="#eb414f"/><path d="M404.384,226.66s-.1.113-.329.318l-1.01.9c-.885.794-2.19,1.952-3.836,3.484A126.645,126.645,0,0,0,386.25,245.35c-2.531,3.143-5.152,6.707-7.943,10.576s-5.674,8.046-8.534,12.483a153.936,153.936,0,0,0-8.363,14.5c-1.316,2.6-2.474,5.311-3.665,8.08l-3.518,8.454a311.9,311.9,0,0,0-12.1,32.648,152.058,152.058,0,0,0-5.674,27.836,110.687,110.687,0,0,0-.318,19.167c.182,2.27.352,4.006.511,5.186.068.567.113,1.021.159,1.35v.465a2.37,2.37,0,0,1-.1-.454c-.057-.329-.125-.772-.216-1.339-.2-1.135-.42-2.928-.624-5.2a105.453,105.453,0,0,1,.113-19.223,149.58,149.58,0,0,1,5.549-27.961A304.59,304.59,0,0,1,353.591,299.2l3.609-8.42c1.192-2.758,2.36-5.492,3.688-8.1a151.971,151.971,0,0,1,8.431-14.537c2.9-4.539,5.833-8.647,8.59-12.483s5.424-7.421,7.943-10.553a120.626,120.626,0,0,1,13.129-13.89c1.68-1.509,3.018-2.644,3.926-3.4l1.055-.851a2.475,2.475,0,0,1,.42-.3Z" transform="translate(-315.388 -223.839)" fill="#263238"/><path d="M358.588,280.433a7.022,7.022,0,0,1-.329-1.441c-.182-.942-.386-2.27-.624-3.994-.488-3.4-.987-8.068-1.521-13.232s-1.135-9.839-1.634-13.209c-.261-1.679-.488-3.03-.647-3.972a6.128,6.128,0,0,1-.193-1.475,6.274,6.274,0,0,1,.42,1.418c.25.931.533,2.27.851,3.96.647,3.4,1.282,8.034,1.816,13.209s.987,9.714,1.339,13.243c.17,1.589.318,2.939.431,4.017a6.287,6.287,0,0,1,.091,1.475Z" transform="translate(-312.941 -221.622)" fill="#263238"/><path d="M401.648,268.829a9.077,9.077,0,0,1-1.68.2c-1.135.1-2.746.238-4.743.465-3.994.431-9.487,1.226-15.512,2.36s-11.439,2.417-15.331,3.4c-1.94.5-3.506.953-4.539,1.26a8.281,8.281,0,0,1-1.7.409,9.889,9.889,0,0,1,1.634-.647c1.067-.374,2.61-.9,4.539-1.453,3.87-1.135,9.283-2.485,15.331-3.643a154.491,154.491,0,0,1,15.49-2.156c2.009-.17,3.631-.238,4.766-.261a8.727,8.727,0,0,1,1.748.057Z" transform="translate(-312.335 -218.165)" fill="#263238"/><path d="M343.908,325.338a2.361,2.361,0,0,1-.3-.533l-.749-1.577c-.647-1.373-1.521-3.4-2.565-5.889-2.111-4.993-4.8-11.983-7.66-19.745s-5.492-14.752-7.49-19.8c-.976-2.451-1.782-4.46-2.383-5.958l-.635-1.623a2.19,2.19,0,0,1-.182-.59,2.361,2.361,0,0,1,.3.533l.749,1.577c.635,1.373,1.521,3.4,2.565,5.889,2.111,4.993,4.8,11.983,7.66,19.745s5.492,14.752,7.49,19.8c.976,2.451,1.782,4.46,2.372,5.958.261.647.477,1.135.647,1.623a2.192,2.192,0,0,1,.182.59Z" transform="translate(-317.212 -218.049)" fill="#263238"/><path d="M399.266,302.25a2.409,2.409,0,0,1-.579.238l-1.679.567-6.207,2.009c-5.243,1.7-12.483,4.131-20.426,6.809s-15.217,5.061-20.494,6.65c-2.633.806-4.777,1.418-6.264,1.827l-1.714.443a2.941,2.941,0,0,1-.613.125,2.4,2.4,0,0,1,.579-.238l1.679-.567,6.207-2.009c5.243-1.7,12.483-4.131,20.426-6.809s15.206-5.061,20.483-6.65c2.644-.806,4.777-1.418,6.275-1.827l1.714-.443A2.941,2.941,0,0,1,399.266,302.25Z" transform="translate(-314.606 -213.651)" fill="#263238"/></g><g transform="translate(349.748 39.349)"><path d="M379.441,62.505,373.6,64.593l-2.508-7.637C366.482,42.873,351.8,35.4,338.3,40.15s-20.676,20.2-16.069,34.282l2.508,7.637-5.867,2.1a9.328,9.328,0,0,0-5.47,11.666l16.261,49.692a8.772,8.772,0,0,0,11.189,5.8l60.563-21.663a9.373,9.373,0,0,0,5.526-11.779L390.675,68.19a8.749,8.749,0,0,0-11.234-5.685Zm-46.163,7.943a14.968,14.968,0,0,1,8.806-18.781,14.026,14.026,0,0,1,17.964,9.2l2.5,7.637-26.769,9.578Zm34.043,44.1,4.153,12.687a1.033,1.033,0,0,1-.647,1.271l-5.821,2.077a.931.931,0,0,1-1.135-.613l-4.187-12.63a11.348,11.348,0,0,1-10.213-7.943A11.926,11.926,0,0,1,356.5,94.438a11.178,11.178,0,0,1,14.31,7.331,12.119,12.119,0,0,1-3.472,12.812Z" transform="translate(-312.921 -38.719)" fill="#eb414f"/><path d="M371.962,61.4c0,.159-10.837,4.233-24.318,9.078S323.167,79.217,323.11,79.1s10.837-4.221,24.33-9.078S371.906,61.253,371.962,61.4Z" transform="translate(-311.547 -35.663)" fill="#263238"/><path d="M382.816,63.24a1.981,1.981,0,0,1,.125.306c.091.227.193.522.329.885.3.828.7,1.975,1.214,3.4l4.358,12.687c1.816,5.379,3.983,11.756,6.389,18.837,1.135,3.552,2.474,7.251,3.722,11.144a17.021,17.021,0,0,1,.851,6.23,8.364,8.364,0,0,1-.919,3.143,8.67,8.67,0,0,1-2.145,2.531,20.426,20.426,0,0,1-5.765,2.939l-5.844,2.1-11.064,3.96-18.735,6.673-12.653,4.448-3.4,1.135-.908.3a.965.965,0,0,1-.306.079.6.6,0,0,0,.284-.136l.885-.352,3.4-1.282,12.585-4.63,18.7-6.809,11.041-3.994,5.844-2.111a19.438,19.438,0,0,0,5.594-2.848,8.067,8.067,0,0,0,2-2.349,7.467,7.467,0,0,0,.851-2.916,16.329,16.329,0,0,0-.817-6c-1.226-3.858-2.519-7.592-3.688-11.144-2.36-7.092-4.539-13.493-6.264-18.871s-3.177-9.7-4.176-12.744c-.477-1.487-.84-2.644-1.135-3.484l-.272-.908a1.057,1.057,0,0,1-.08-.216Z" transform="translate(-309.532 -35.415)" fill="#263238"/><path d="M352.211,49.71s-.6-.3-1.714-.749a15.115,15.115,0,0,0-4.959-1,17.022,17.022,0,0,0-7.331,1.384,16.341,16.341,0,0,0-6.934,5.8,15.342,15.342,0,0,0-2.667,8.613,26.542,26.542,0,0,0,1.135,7.433c.59,2.065,1.2,3.711,1.611,4.857a12.674,12.674,0,0,1,.59,1.793,9.961,9.961,0,0,1-.806-1.714c-.465-1.135-1.135-2.746-1.793-4.823a25.806,25.806,0,0,1-1.3-7.546,15.558,15.558,0,0,1,2.723-8.942,16.6,16.6,0,0,1,7.206-5.969,16.885,16.885,0,0,1,7.546-1.294,14.287,14.287,0,0,1,5.027,1.192,9.37,9.37,0,0,1,1.226.681,1.691,1.691,0,0,1,.443.284Z" transform="translate(-310.883 -37.533)" fill="#263238"/><path d="M350.608,88.749a3.912,3.912,0,0,1,.567-.284,11.268,11.268,0,0,1,1.759-.624,12.584,12.584,0,0,1,2.939-.5,9.963,9.963,0,0,1,3.983.6c2.905,1.021,5.572,3.983,6.888,7.943a11.439,11.439,0,0,1,0,6.514,14.752,14.752,0,0,1-3.654,6.116l.068-.306c1.509,4.142,3.155,8.636,4.857,13.322l.1.284-.284.1-2.6.862-5.674,1.9-.284.091-.091-.284c-1.555-4.7-3.257-9.078-4.539-13.379l.25.193a11.348,11.348,0,0,1-6.082-2.394,13.731,13.731,0,0,1-3.8-4.539,10.372,10.372,0,0,1-1.2-5.107,12.324,12.324,0,0,1,4.755-9.373,7.217,7.217,0,0,1,1.963-1.135,21.877,21.877,0,0,0-1.861,1.237,12.063,12.063,0,0,0-3.506,4.982,10.735,10.735,0,0,0,.352,9.158,13.322,13.322,0,0,0,3.711,4.358,10.8,10.8,0,0,0,5.8,2.27h.193l.057.17c1.248,4.221,2.962,8.636,4.539,13.356l-.374-.182,5.674-1.9,2.587-.874-.182.386c-1.691-4.687-3.325-9.192-4.823-13.334v-.17l.136-.136a14.457,14.457,0,0,0,3.586-5.867,10.973,10.973,0,0,0,0-6.23c-1.237-3.813-3.79-6.707-6.559-7.728a9.748,9.748,0,0,0-3.847-.647,13.005,13.005,0,0,0-2.905.4C351.413,88.42,350.619,88.806,350.608,88.749Z" transform="translate(-308.758 -32.168)" fill="#263238"/></g><g transform="translate(218.601 89.518)"><path d="M335.271,417l-113.353-.522A24.7,24.7,0,0,1,197.35,391.67l1.2-284.16A24.682,24.682,0,0,1,223.359,82.93l113.342.522a24.7,24.7,0,0,1,24.579,24.795l-1.2,284.149A24.7,24.7,0,0,1,335.271,417Z" transform="translate(-197.35 -82.93)" fill="#455a64"/><path d="M335.635,92.046H313.665a5.458,5.458,0,0,0-5.356,5.56v3.983a5.447,5.447,0,0,1-5.356,5.549l-42.827-.193a5.47,5.47,0,0,1-5.322-5.606V97.357a5.47,5.47,0,0,0-5.311-5.606h-7.728l-19.235-.091a17.294,17.294,0,0,0-17.4,17.124L204,386.147a17.283,17.283,0,0,0,17.2,17.362l113.115.522a17.294,17.294,0,0,0,17.374-17.215l1.135-277.363a17.305,17.305,0,0,0-17.192-17.407Z" transform="translate(-196.454 -81.753)" fill="#fff"/><path d="M316.766,337.478l-84.11-.363c-.874,0-1.577-.953-1.566-2.111l.091-22c0-1.135.715-2.111,1.589-2.111l84.11.386a1.906,1.906,0,0,1,1.566,2.122l-.079,21.981C318.366,336.547,317.64,337.489,316.766,337.478Z" transform="translate(-192.802 -52.205)" fill="#eb414f"/><text transform="translate(81.686 274.562)" fill="#e8e8e3" font-size="9" font-family="Montserrat-Regular, Montserrat"><tspan x="-14.859" y="0">LOGIN</tspan></text><rect width="29.187" height="5.356" transform="translate(27.444 91.695) rotate(0.26)" fill="#ff725e"/><rect width="29.187" height="5.356" transform="translate(27.444 91.695) rotate(0.26)" opacity="0.1"/><path d="M336.325,195.2a2.61,2.61,0,0,0,.67-.159,1.793,1.793,0,0,0,1.135-1.532c0-1.8,0-4.437,0-7.819v-7.251a2.2,2.2,0,0,0-.318-1.487,1.7,1.7,0,0,0-1.35-.692H318.294l-94.913-.352a1.509,1.509,0,0,0-1.248.624,2.168,2.168,0,0,0-.3,1.487q0,1.7,0,3.4v10.213a8.954,8.954,0,0,0,0,1.589,1.532,1.532,0,0,0,.885,1.021,1.77,1.77,0,0,0,.7.125H229.2l25.2.136,42.668.261L325.84,195l7.819.091H297.073l-42.668-.136-25.2-.1h-5.776a2.27,2.27,0,0,1-.931-.159,2.133,2.133,0,0,1-1.226-1.418,3.212,3.212,0,0,1-.068-.908V177.911a6.357,6.357,0,0,1,0-.908,1.929,1.929,0,0,1,.374-.919,2.088,2.088,0,0,1,1.725-.874l94.913.522,16.4.113h1.77a1.94,1.94,0,0,1,1.589.828,2.417,2.417,0,0,1,.363,1.668v7.251c0,3.4-.079,6.014-.1,7.83A1.839,1.839,0,0,1,337.04,195a1.362,1.362,0,0,1-.715.2Z" transform="translate(-194.137 -70.492)" fill="#e0e0e0"/><rect width="53.38" height="5.004" transform="translate(36.211 111.118)" fill="#ff725e"/><rect width="53.38" height="5.004" transform="translate(36.211 111.118)" fill="#fff" opacity="0.2"/><rect width="29.187" height="5.356" transform="translate(27.245 140.557) rotate(0.26)" fill="#ff725e"/><rect width="29.187" height="5.356" transform="translate(27.245 140.557) rotate(0.26)" opacity="0.1"/><path d="M335.619,238.25a5.869,5.869,0,0,0,.681-.125,2.326,2.326,0,0,0,1.43-1.294,3.178,3.178,0,0,0,.2-1.441V221.852a2.44,2.44,0,0,0-.329-1.5,2.2,2.2,0,0,0-1.237-.965,6.955,6.955,0,0,0-1.714-.091H318.325l-94.584-.352a2.1,2.1,0,0,0-2.077,1.827c0,1.078,0,2.27,0,3.4v10.213a6.514,6.514,0,0,0,.068,1.589,2.156,2.156,0,0,0,.828,1.135,2.36,2.36,0,0,0,1.407.363h4.857l25.113.125,42.52.261,28.665.227,7.8.091H296.458l-42.543-.045-25.113-.091h-4.936a2.848,2.848,0,0,1-1.736-.465,2.723,2.723,0,0,1-1.067-1.487,7.15,7.15,0,0,1-.091-1.748q0-1.7,0-3.4V220.729a2.689,2.689,0,0,1,2.667-2.349l94.584.522,16.33.125a7.026,7.026,0,0,1,1.816.125,2.508,2.508,0,0,1,1.4,1.135,2.735,2.735,0,0,1,.363,1.657v13.595a3.167,3.167,0,0,1-.238,1.487,2.406,2.406,0,0,1-1.532,1.294A2.133,2.133,0,0,1,335.619,238.25Z" transform="translate(-194.168 -64.674)" fill="#e0e0e0"/><rect width="29.187" height="5.356" transform="translate(27.025 191.542) rotate(0.26)" fill="#ff725e"/><rect width="29.187" height="5.356" transform="translate(27.025 191.542) rotate(0.26)" opacity="0.1"/><path d="M335.407,283.177a5.423,5.423,0,0,0,.681-.125,2.338,2.338,0,0,0,1.43-1.282,3.2,3.2,0,0,0,.2-1.441c0-.556,0-1.135,0-1.8V266.78a2.44,2.44,0,0,0-.329-1.5,2.27,2.27,0,0,0-1.237-.953,6.933,6.933,0,0,0-1.714-.1h-16.33l-94.584-.352a2.1,2.1,0,0,0-2.077,1.827q0,1.7,0,3.4v10.213a6.422,6.422,0,0,0,.068,1.577,2.077,2.077,0,0,0,.828,1.135,2.27,2.27,0,0,0,1.407.363h4.936l25.113.136,42.52.261,28.665.227,7.8.091H296.325l-42.52-.125-25.113-.1h-4.936a2.78,2.78,0,0,1-1.736-.465,2.724,2.724,0,0,1-1.067-1.487,7.149,7.149,0,0,1-.091-1.748q0-1.7,0-3.4v-10.27a2.678,2.678,0,0,1,2.655-2.349l94.584.522,16.33.125a7.026,7.026,0,0,1,1.816.125,2.508,2.508,0,0,1,1.4,1.135,2.735,2.735,0,0,1,.363,1.657v13.595a3.109,3.109,0,0,1-.238,1.487,2.406,2.406,0,0,1-1.532,1.294A1.793,1.793,0,0,1,335.407,283.177Z" transform="translate(-194.183 -58.638)" fill="#e0e0e0"/><rect width="53.38" height="5.004" transform="translate(35.072 161.155) rotate(0.26)" fill="#ff725e"/><rect width="53.38" height="5.004" transform="translate(35.072 161.155) rotate(0.26)" fill="#fff" opacity="0.2"/><path d="M233.065,272.938a2.338,2.338,0,1,1-2.27-2.508A2.406,2.406,0,0,1,233.065,272.938Z" transform="translate(-193.165 -57.658)" fill="#ff725e"/><path d="M239.435,272.967a2.338,2.338,0,1,1-1.116-2.159,2.338,2.338,0,0,1,1.116,2.159Z" transform="translate(-192.307 -57.653)" fill="#ff725e"/><path d="M245.815,273a2.338,2.338,0,1,1-2.27-2.508A2.417,2.417,0,0,1,245.815,273Z" transform="translate(-191.447 -57.65)" fill="#ff725e"/><path d="M252.185,273.028a2.338,2.338,0,1,1-2.27-2.508A2.417,2.417,0,0,1,252.185,273.028Z" transform="translate(-190.588 -57.646)" fill="#ff725e"/><path d="M258.555,273.047a2.338,2.338,0,1,1-2.27-2.5A2.417,2.417,0,0,1,258.555,273.047Z" transform="translate(-189.73 -57.642)" fill="#ff725e"/><path d="M264.935,273.077a2.338,2.338,0,1,1-2.326-2.5,2.417,2.417,0,0,1,2.326,2.5Z" transform="translate(-188.87 -57.638)" fill="#ff725e"/><path d="M271.3,273.107a2.338,2.338,0,1,1-1.116-2.159A2.338,2.338,0,0,1,271.3,273.107Z" transform="translate(-188.011 -57.634)" fill="#ff725e"/><path d="M277.675,273.137a2.338,2.338,0,1,1-2.326-2.5,2.417,2.417,0,0,1,2.326,2.5Z" transform="translate(-187.153 -57.63)" fill="#ff725e"/><path d="M284.045,273.167a2.338,2.338,0,1,1-2.27-2.5A2.417,2.417,0,0,1,284.045,273.167Z" transform="translate(-186.294 -57.626)" fill="#ff725e"/><g transform="translate(35.23 212.771)" opacity="0.2"><path d="M233.065,272.938a2.338,2.338,0,1,1-2.27-2.508A2.406,2.406,0,0,1,233.065,272.938Z" transform="translate(-228.395 -270.429)" fill="#fff"/><path d="M239.435,272.967a2.338,2.338,0,1,1-1.116-2.159,2.338,2.338,0,0,1,1.116,2.159Z" transform="translate(-227.537 -270.424)" fill="#fff"/><path d="M245.815,273a2.338,2.338,0,1,1-2.27-2.508A2.417,2.417,0,0,1,245.815,273Z" transform="translate(-226.677 -270.421)" fill="#fff"/><path d="M252.185,273.028a2.338,2.338,0,1,1-2.27-2.508A2.417,2.417,0,0,1,252.185,273.028Z" transform="translate(-225.818 -270.417)" fill="#fff"/><path d="M258.555,273.047a2.338,2.338,0,1,1-2.27-2.5A2.417,2.417,0,0,1,258.555,273.047Z" transform="translate(-224.96 -270.413)" fill="#fff"/><path d="M264.935,273.077a2.338,2.338,0,1,1-2.326-2.5,2.417,2.417,0,0,1,2.326,2.5Z" transform="translate(-224.1 -270.409)" fill="#fff"/><path d="M271.3,273.107a2.338,2.338,0,1,1-1.116-2.159A2.338,2.338,0,0,1,271.3,273.107Z" transform="translate(-223.242 -270.405)" fill="#fff"/><path d="M277.675,273.137a2.338,2.338,0,1,1-2.326-2.5,2.417,2.417,0,0,1,2.326,2.5Z" transform="translate(-222.383 -270.401)" fill="#fff"/><path d="M284.045,273.167a2.338,2.338,0,1,1-2.27-2.5A2.417,2.417,0,0,1,284.045,273.167Z" transform="translate(-221.524 -270.397)" fill="#fff"/></g><path d="M275.517,129.51a4.392,4.392,0,0,0,2.621-4.074,4.131,4.131,0,1,0-8.25,0,4.4,4.4,0,0,0,2.633,4.119c-6.355.953-6.071,7.853-6.071,7.853l15.024.068S281.826,130.452,275.517,129.51Z" transform="translate(-188.037 -77.787)" fill="#ff725e"/><path d="M275.517,129.51a4.392,4.392,0,0,0,2.621-4.074,4.131,4.131,0,1,0-8.25,0,4.4,4.4,0,0,0,2.633,4.119c-6.355.953-6.071,7.853-6.071,7.853l15.024.068S281.826,130.452,275.517,129.51Z" transform="translate(-188.037 -77.787)" opacity="0.1"/><rect width="53.55" height="6.4" transform="translate(58.345 63.897) rotate(0.26)" fill="#ff725e"/><rect width="53.55" height="6.4" transform="translate(58.345 63.897) rotate(0.26)" fill="#fff" opacity="0.2"/></g><g transform="translate(104.436 186.825)"><path d="M125.937,168.68H125.4l-1.543.113a17.511,17.511,0,0,0-2.485.329,15.357,15.357,0,0,0-1.577.306l-1.759.488a28.9,28.9,0,0,0-8.363,4.142,29.436,29.436,0,0,0-8.239,9.169,30.729,30.729,0,0,0-2.882,6.593,31.706,31.706,0,0,0-1.26,7.694,31.184,31.184,0,0,0,.068,4.108,16.753,16.753,0,0,0,.284,2.088,13.415,13.415,0,0,0,.4,2.1,29.947,29.947,0,0,0,17.022,20.8,26.963,26.963,0,0,0,9.748,2.19,26.316,26.316,0,0,0,10.213-1.464l1-.374h.136l.113.068,14.31,7.263-.42.363c-1.532-4.743-3.007-9.339-4.437-13.754v-.17l.125-.125a30.639,30.639,0,0,0,7.512-12.483,31.433,31.433,0,0,0,1.135-13.3,31.07,31.07,0,0,0-3.756-11.28,30.639,30.639,0,0,0-6.468-7.943,31.6,31.6,0,0,0-7.024-4.471,30.571,30.571,0,0,0-5.946-1.872l-2.27-.374-1.645-.125-1-.068h-.34a1.543,1.543,0,0,1,.34,0h1.01l1.645.068,2.27.329a30.07,30.07,0,0,1,6.026,1.8,31.535,31.535,0,0,1,7.149,4.46,30.718,30.718,0,0,1,6.6,7.943,31.15,31.15,0,0,1,3.87,11.427,31.774,31.774,0,0,1-1.055,13.527,31.048,31.048,0,0,1-7.626,12.744l.068-.3c1.43,4.414,2.916,9.01,4.46,13.742l.216.692-.647-.329-14.31-7.251h.25l-1.021.374a27.076,27.076,0,0,1-10.406,1.5,27.575,27.575,0,0,1-9.952-2.27,29.856,29.856,0,0,1-14.219-12.721,30.3,30.3,0,0,1-3.211-8.4,17.383,17.383,0,0,1-.4-2.145c-.091-.715-.238-1.418-.272-2.122a33.533,33.533,0,0,1,1.26-11.983,30.514,30.514,0,0,1,2.962-6.672,29.7,29.7,0,0,1,8.409-9.226,28.688,28.688,0,0,1,8.5-4.108l1.782-.454a15.769,15.769,0,0,1,1.589-.284,16.851,16.851,0,0,1,2.508-.272l1.555-.057A3.808,3.808,0,0,1,125.937,168.68Z" transform="translate(-96.745 -168.68)" fill="#eb414f"/><path d="M130.265,193.255h-2.1l-4.539-6.377V182.69s-3.245-.2-2.86,5.277,0,4.085,0,4.085-6.888,0-7.456.624-.6,7.274-.681,10.985a4.017,4.017,0,0,0,2.848,4.04,2.814,2.814,0,0,0,.738.1c1.725,0,10.5-1.4,10.5-1.4h3.62Z" transform="translate(-94.604 -166.792)" fill="#eb414f"/><path d="M134.04,191.01l-1.294,14.344H129.16V191.305Z" transform="translate(-92.376 -165.67)" fill="#eb414f"/></g><g transform="translate(133.617 193.572)"><path d="M173.234,449.507v-9.7l-17.4-.125-.148,14.673,1.078.079c4.8.306,24.421.76,27.643-.238C188,453.082,173.234,449.507,173.234,449.507Z" transform="translate(-117.981 -138.9)" fill="#ff725e"/><path d="M184.813,451.705c0,.159-6.514.3-14.537.3s-14.537-.136-14.537-.3,6.514-.3,14.537-.3S184.813,451.546,184.813,451.705Z" transform="translate(-117.975 -137.319)" fill="#263238"/><path d="M171.427,450.306c-.148-.079,0-.59.352-1.135s.828-.772.942-.658-.125.545-.465,1.01S171.574,450.386,171.427,450.306Z" transform="translate(-115.868 -137.714)" fill="#263238"/><path d="M172.409,450.9c-.159,0-.079-.635.261-1.237s.794-.965.919-.874-.079.6-.4,1.135S172.557,450.959,172.409,450.9Z" transform="translate(-115.738 -137.674)" fill="#263238"/><path d="M160.956,452.034c-.068,0-.329-.2-.7-.635a11.249,11.249,0,0,0-1.521-1.521,4.006,4.006,0,0,0-1.884-.828c-.533-.068-.874,0-.908-.068s.3-.306.919-.352a3.507,3.507,0,0,1,2.27.772,6.4,6.4,0,0,1,1.5,1.759C160.888,451.66,161.024,451.989,160.956,452.034Z" transform="translate(-117.948 -137.694)" fill="#263238"/><path d="M171.67,448.487c.079.136-.216.477-.715.658s-.942.113-.965,0,.329-.352.76-.511S171.579,448.351,171.67,448.487Z" transform="translate(-116.054 -137.721)" fill="#263238"/><path d="M171.478,447.684c0,.17-.454.306-1.044.318s-1.055-.125-1.044-.284.477-.306,1.044-.318S171.455,447.525,171.478,447.684Z" transform="translate(-116.135 -137.86)" fill="#263238"/><path d="M210.984,449.507v-9.7l-17.4-.125-.148,14.525,1.078.079c4.8.306,24.432.908,27.643-.091C225.747,453.082,210.984,449.507,210.984,449.507Z" transform="translate(-112.893 -138.9)" fill="#ff725e"/><path d="M222.562,451.725c0,.159-6.5.3-14.537.3s-14.525-.136-14.525-.3,6.5-.3,14.525-.3S222.562,451.566,222.562,451.725Z" transform="translate(-112.885 -137.317)" fill="#263238"/><path d="M209.176,450.306c-.136-.079,0-.59.352-1.135s.828-.772.942-.658-.125.545-.465,1.01S209.324,450.386,209.176,450.306Z" transform="translate(-110.779 -137.714)" fill="#263238"/><path d="M210.159,450.9c-.148,0-.079-.635.272-1.237s.794-.965.919-.874-.091.6-.409,1.135S210.318,450.959,210.159,450.9Z" transform="translate(-110.65 -137.674)" fill="#263238"/><path d="M198.706,452.034c-.068,0-.318-.2-.7-.635a11.248,11.248,0,0,0-1.521-1.521,4.006,4.006,0,0,0-1.884-.828c-.522-.068-.874,0-.908-.068s.3-.306.919-.352a3.507,3.507,0,0,1,2.27.772,6.207,6.207,0,0,1,1.5,1.759C198.638,451.66,198.774,451.989,198.706,452.034Z" transform="translate(-112.86 -137.694)" fill="#263238"/><path d="M209.42,448.487c.079.136-.216.477-.715.658s-.942.113-.965,0,.329-.352.76-.511S209.329,448.351,209.42,448.487Z" transform="translate(-110.966 -137.721)" fill="#263238"/><path d="M209.247,447.684c0,.17-.454.306-1.044.318s-1.044-.125-1.033-.284.465-.306,1.033-.318S209.247,447.525,209.247,447.684Z" transform="translate(-111.043 -137.86)" fill="#263238"/><path d="M284.643,196.257c-.454-.465-1.577-.238-1.577-.238a5.811,5.811,0,0,0,0-1.975c-.2-.635-1.634-.511-1.634-.511a6.593,6.593,0,0,1,0-1.611.579.579,0,0,0-.329-.579,5.242,5.242,0,0,0-2.133-.386c-.874-.624,2.667-5.583,3.983-7.172s1.078-2.826-.091-2.826c-.806,0-4.936,4.766-6.207,6.366s-4.641,6.048-4.755,2.5-1.543-6.23-2.44-6.684-1.85.613-1.362,1.6a12.7,12.7,0,0,1,.794,3.5,8.353,8.353,0,0,1-.125,2.86,34.292,34.292,0,0,1-1.532,5.129h-.091s-24.761,23.751-26.554,25.442c-1.6,1.521-33.782-1.8-40.239-2.485a43.217,43.217,0,0,0-6.627-.454c-2.8.125-3.3.522-6.094.556a138.008,138.008,0,0,0-21.039,1.85A17.442,17.442,0,0,0,152.906,233c-6.5,20.313-21.232,68.393-23.83,95.4a114.613,114.613,0,0,0-5.311,10.973c-1.827,4.97-1.384,5.141-.772,5.254,1.657.306,3.541-8.613,4.244-6.457s-3.575,10.633-1.838,10.883c2.27.318,4.074-9.078,4.289-9.827s1.339-.511,1.135.193c-.329,1-3.518,11.586-1.294,11.927,1.226.182,1.362-2.054,1.362-2.054s2.27-10.134,3.3-9.929-.068,6.185-.59,8.182.2,3.007,1.271,2.519c.726-.34,2.462-6.411,2.939-8.386s1.668-7.444,3.268-4.278,4.028,5,5.027,5.05a1.135,1.135,0,0,0,.556-2.031,12.857,12.857,0,0,1-2.19-2.837,8.363,8.363,0,0,1-1.135-2.655,28.793,28.793,0,0,1-.794-5.742l-.182-1.135c2.542-12.585,9.861-49.522,20.426-73.114l4.335,8.919,1.884,6.6-11.552,28.517,49.272-.647-7.353-28.3,8.931-29.5h0c9.657.216,34.452.579,38.583-1.294,5.2-2.27,32.08-36.222,32.08-36.222h0A62.1,62.1,0,0,0,284,198.651S285.63,197.278,284.643,196.257Z" transform="translate(-122.46 -173.771)" fill="#ffbe9d"/><path d="M153.212,273.7c1.43-4.88,8.772-29.005,8.772-29.005s3.609,19.666,2.655,22.037a41.986,41.986,0,0,1-3.1,5.855c-8.329,12.676-7.24,19.019-7.24,19.019l50.328-1.532c.113-7.036-4.051-23.4-4.914-26.009s2.009-11.155,2.009-11.155,5.674-5.776,5.47-8.749a48.092,48.092,0,0,0-.987-7.943l30.639,1.135-.965-20.766-44.007-4.4c-1.532,4.324-15.388,2.2-15.388,2.2-14.956.5-15.887,3.245-22.106,8.08s-16.511,46.322-16.511,46.322Z" transform="translate(-120.383 -169.563)" fill="#eb414f"/><path d="M179.741,262.274a10.586,10.586,0,0,1-2.644.136c-1.645,0-3.9-.113-6.389-.363s-4.732-.6-6.332-.919a10.917,10.917,0,0,1-2.576-.658,14.182,14.182,0,0,1,2.644.25c1.611.2,3.847.488,6.321.738s4.721.42,6.343.533A14,14,0,0,1,179.741,262.274Z" transform="translate(-117.158 -163.054)" fill="#263238"/><path d="M182.967,258.29a11.632,11.632,0,0,1-2.746.942,50.452,50.452,0,0,1-13.878,1.645,11.451,11.451,0,0,1-2.882-.272,19.4,19.4,0,0,1,2.882-.148c1.782-.057,4.233-.182,6.934-.5s5.107-.772,6.809-1.135a18.813,18.813,0,0,1,2.882-.533Z" transform="translate(-116.934 -163.348)" fill="#263238"/><path d="M196.069,241.47a11.813,11.813,0,0,1-.352,2.565c-.3,1.577-.749,3.733-1.328,6.094s-1.135,4.539-1.634,6.014a11.347,11.347,0,0,1-.885,2.44,11.552,11.552,0,0,1,.477-2.542c.431-1.77.919-3.813,1.464-6.048s1.067-4.278,1.5-6.048a10.826,10.826,0,0,1,.76-2.474Z" transform="translate(-113.105 -165.615)" fill="#263238"/><path d="M153.684,264.337a52.748,52.748,0,0,1-7.751-1.8,53.857,53.857,0,0,1-7.6-2.383,54.565,54.565,0,0,1,7.751,1.8,53.256,53.256,0,0,1,7.6,2.383Z" transform="translate(-120.321 -163.097)" fill="#263238"/><path d="M200.234,235.824a3.814,3.814,0,0,1-1.294,0A13.448,13.448,0,0,1,195.48,235a14.219,14.219,0,0,1-8.216-8.068,14.661,14.661,0,0,1-1.01-6.389,9.929,9.929,0,0,1,1.555-5.061,5.254,5.254,0,0,1,2.871-2.122,3.472,3.472,0,0,1,.965-.125h.34a3.68,3.68,0,0,0-1.237.306,5.163,5.163,0,0,0-2.6,2.122c-1.543,2.428-1.975,6.865-.329,11.007a13.867,13.867,0,0,0,3.506,5.129,14.9,14.9,0,0,0,4.3,2.769,21.857,21.857,0,0,0,4.607,1.26Z" transform="translate(-113.866 -169.421)" fill="#263238"/><path d="M221.917,236.484a94.55,94.55,0,0,1-.272-10.463,93.615,93.615,0,0,1,.318-10.451,94.255,94.255,0,0,1,.272,10.451,90.785,90.785,0,0,1-.318,10.463Z" transform="translate(-109.097 -169.106)" fill="#263238"/><path d="M187.21,218.021c.125-2.531.386-5.39.386-5.39s6.264-.692,6.638-7.16,0-21.391,0-21.391l-11.348-5.81-12.6,9.907,1.94,32.341,11.552.738a3.336,3.336,0,0,0,3.427-3.234Z" transform="translate(-116.013 -174.133)" fill="#ffbe9d"/><path d="M186.5,198.168a.526.526,0,0,1-.1.272.84.84,0,0,1-.715.318c-.726,0-1.43-.84-1.679-1.816a2.962,2.962,0,0,1,0-1.441,1.248,1.248,0,0,1,.681-.976.624.624,0,0,1,.477,0,.579.579,0,0,1,.261.261.32.32,0,0,1,0,.306.331.331,0,0,0-.113-.227.409.409,0,0,0-.533-.113.965.965,0,0,0-.465.806,2.905,2.905,0,0,0,0,1.282c.227.885.84,1.6,1.384,1.668a.783.783,0,0,0,.6-.17C186.429,198.248,186.474,198.157,186.5,198.168Z" transform="translate(-114.178 -171.949)" fill="#eb996e"/><path d="M201.65,181.076c-.874-2.973-4.04-4.448-6.922-5.265-4.392-1.248-9.135-1.793-13.424-.216s-9.441,4.346-9.441,9.078c-2.531-.2-3.983,2.009-4.982,4.755a17.816,17.816,0,0,0-1.135,5.22h0c-.318,6.2-2.054,14.752-6.071,19.291-2.27,2.531-5.413,4.278-6.707,7.433-1.135,2.735-.545,5.98-1.6,8.749-.942,2.44-3.019,4.176-4.539,6.3a16.886,16.886,0,0,0-1.078,16.329,20.676,20.676,0,0,0,12.358,10.667,28.9,28.9,0,0,0,16.284.159,27.235,27.235,0,0,0,10.917-5.413,18.225,18.225,0,0,0,6.332-10.485c.806-4.63-.488-9.339-1.453-13.946-3.019-14.559-2.156-15.32,1.657-28.835.091-.238.136-.488.2-.726s.1-.352.148-.533h0a8.557,8.557,0,0,0,.17-1.623,3.121,3.121,0,0,1-3.28-.7,3.4,3.4,0,0,1-.772-3.4,4.948,4.948,0,0,1,2.928-2.758c1.26-.522,2.61-.794,3.847-1.373,2.621-1.248,4.437-3.836,5.674-6.548a8.988,8.988,0,0,0,.885-6.151Z" transform="translate(-119.538 -174.625)" fill="#263238"/><path d="M186.819,198a5.55,5.55,0,0,1,.59,1.135c.34.715.794,1.725,1.294,2.894l.091.216h-.238l-1.135.1c-.783,0-1.441.148-2.213.136a.409.409,0,0,1-.3-.261.511.511,0,0,1,0-.318,4.544,4.544,0,0,1,.1-.454l.2-.806a7.682,7.682,0,0,1,.477-1.566,7.66,7.66,0,0,1-.238,1.623l-.159.806c-.057.272-.159.692,0,.658.567,0,1.373-.125,2.122-.17l1.135-.1-.148.25c-.488-1.135-.9-2.2-1.135-2.939a4.426,4.426,0,0,1-.454-1.2Z" transform="translate(-114.046 -171.474)" fill="#ff725e"/><path d="M152.639,282.352l50.328-1.532,21.9,85.494-4.028,98.068H194.228l3.257-95.98-19.461-59.519,3,159.3-26.894.4L151.3,318.847c-.125-4.165-1.487-13.549-.976-17.68Z" transform="translate(-118.72 -160.312)" fill="#263238"/><path d="M182.569,307.016a10.078,10.078,0,0,1-2.462-.148c-1.521-.182-3.6-.5-5.878-.953s-4.324-.976-5.8-1.4a9.363,9.363,0,0,1-2.27-.817c0-.17,3.7.715,8.238,1.634S182.592,306.846,182.569,307.016Z" transform="translate(-116.57 -157.23)" fill="#455a64"/><path d="M215.408,437.875c0,.159-6.026.3-13.459.3s-13.47-.136-13.47-.3,6.026-.3,13.47-.3S215.408,437.7,215.408,437.875Z" transform="translate(-113.562 -139.183)" fill="#455a64"/><path d="M180.254,442.315c0,.17-5.855.3-13.073.3s-13.061-.125-13.061-.3,5.855-.3,13.061-.3S180.254,442.156,180.254,442.315Z" transform="translate(-118.193 -138.585)" fill="#455a64"/><path d="M174.4,460.388c-.159,0-.862-34.8-1.577-77.732s-1.135-77.755-.987-77.755.874,34.792,1.577,77.744S174.568,460.388,174.4,460.388Z" transform="translate(-115.809 -157.066)" fill="#455a64"/><path d="M211.215,458.821a2.9,2.9,0,0,1,0-.465v-1.362c0-1.226.091-2.984.159-5.22.159-4.539.386-11.132.67-19.212.613-16.25,1.475-38.651,2.417-63.378v-.59c-5.958-23.83-11.348-45.459-15.263-61.108l-4.539-18.508c-.522-2.167-.919-3.858-1.2-5.038-.136-.556-.227-.987-.306-1.316a1.964,1.964,0,0,1-.079-.454,2.509,2.509,0,0,1,.136.443c.091.318.2.749.363,1.294.306,1.135.749,2.86,1.316,5.016,1.135,4.38,2.735,10.69,4.732,18.463,3.949,15.637,9.4,37.209,15.433,61.074v.749c-1.01,24.727-1.929,47.116-2.6,63.366-.352,8.091-.647,14.639-.851,19.2-.113,2.27-.2,3.994-.261,5.22,0,.579-.068,1.033-.079,1.362a2.168,2.168,0,0,1-.045.465Z" transform="translate(-112.943 -160.13)" fill="#455a64"/><path d="M202.845,356.5a30.4,30.4,0,0,1-5.878,1.3c-2.451.42-4.539.715-5.481.76v-.227c.306.091.465.148.465.193s-.193,0-.511,0h-.681l.681-.2c.885-.261,2.973-.692,5.424-1.135a30.636,30.636,0,0,1,5.98-.692Z" transform="translate(-113.254 -150.111)" fill="#455a64"/><path d="M202.256,359.48a29.282,29.282,0,0,1-5.3-.238,29.937,29.937,0,0,1-5.277-.579A33.6,33.6,0,0,1,202.256,359.48Z" transform="translate(-113.13 -149.835)" fill="#455a64"/><path d="M152.16,284.156a6.9,6.9,0,0,0,4.97,2.644,22.389,22.389,0,0,0,6.094-.113c12.993-1.441,26.758-2.769,39.479-5.867-16.466.919-33.862.613-50.328,1.532l-.17,1.407" transform="translate(-118.457 -160.312)" opacity="0.2"/><g transform="translate(50.668 147.051)" opacity="0.2"><path d="M167.11,304.21l9.283,36.018-.647-34.5Z" transform="translate(-167.11 -304.21)"/></g></g></g></svg>